<svg width="454" height="426" viewBox="0 0 454 426" fill="none" xmlns="http://www.w3.org/2000/svg">
<path d="M248.239 337.495H144.085V417.827H248.239V337.495Z" fill="#EBEBEB"/>
<path d="M222.144 417.261C222 417.261 221.884 399.355 221.884 377.271C221.884 355.18 222.001 337.278 222.144 337.278C222.287 337.278 222.404 355.18 222.404 377.271C222.404 399.354 222.288 417.261 222.144 417.261Z" fill="#E0E0E0"/>
<path d="M239.408 399.543H231.423V408.569H239.408V399.543Z" fill="#FAFAFA"/>
<path d="M187.69 337.702H175.859V354.843H187.69V337.702Z" fill="#E0E0E0"/>
<path d="M187.69 400.448H175.859V417.589H187.69V400.448Z" fill="#E0E0E0"/>
<path d="M437.221 317.354H305.895V418.644H437.221V317.354Z" fill="#EBEBEB"/>
<path d="M404.317 417.929C404.173 417.929 404.057 395.351 404.057 367.507C404.057 339.653 404.174 317.08 404.317 317.08C404.46 317.08 404.577 339.653 404.577 367.507C404.578 395.352 404.461 417.929 404.317 417.929Z" fill="#E0E0E0"/>
<path d="M426.085 395.589H416.017V406.97H426.085V395.589Z" fill="#FAFAFA"/>
<path d="M360.875 317.616H345.958V339.229H360.875V317.616Z" fill="#E0E0E0"/>
<path d="M360.875 396.73H345.958V418.343H360.875V396.73Z" fill="#E0E0E0"/>
<path d="M58.5351 320.334C63.8501 317.592 70.1091 317.235 76.0101 318.21C79.1801 318.734 82.4851 319.683 84.6421 322.064C86.7991 324.445 87.2081 328.636 84.7311 330.682C83.2561 331.9 81.2001 332.085 79.2881 332.063C74.6691 332.009 69.5431 331.196 65.8531 333.975C63.7471 335.561 62.3461 338.197 59.8281 338.977C57.3651 339.74 54.5861 338.286 53.2801 336.064C51.9741 333.841 51.9311 331.063 52.5391 328.557C52.5391 328.557 53.1811 323.097 58.5351 320.334Z" fill="#EBEBEB"/>
<path d="M46.3581 296.827C49.6081 301.469 55.9251 299.932 58.8541 297.099C61.7831 294.266 63.0211 290.159 64.1481 286.243C66.7231 277.295 69.3191 267.909 67.4041 258.797C66.8321 256.073 65.8131 253.356 63.8991 251.335C61.9851 249.314 59.0411 248.112 56.3501 248.823C53.1651 249.664 51.1851 252.784 49.7551 255.752C45.5501 264.475 43.3231 274.145 43.2901 283.828C43.2731 288.35 43.8071 293.093 46.3581 296.827Z" fill="#EBEBEB"/>
<path d="M37.4321 303.487C40.9611 299.299 41.6311 293.19 40.0601 287.944C38.4901 282.697 34.9421 278.234 30.8541 274.59C26.0601 270.318 20.4261 266.993 14.3681 264.863C11.9841 264.025 9.47012 263.364 6.95412 263.604C4.43812 263.844 1.90512 265.13 0.73212 267.368C-1.00288 270.677 0.660119 274.69 2.46012 277.965C5.63012 283.734 9.25412 289.252 13.2881 294.454C16.5331 298.638 20.2511 302.765 25.1971 304.656C30.1431 306.547 35.2811 306.324 37.9031 302.894" fill="#EBEBEB"/>
<path d="M46.1381 366.85C46.1991 366.854 46.2981 366.102 46.4321 364.741C46.5811 363.206 46.7691 361.278 46.9921 358.985C47.2601 356.563 47.6141 353.68 48.2871 350.541C48.9581 347.41 50.0081 344.017 51.3561 340.575C52.7521 337.154 54.4551 334.045 56.4451 331.558C58.4211 329.06 60.7181 327.252 62.8781 326.21C65.0311 325.146 66.9621 324.715 68.2961 324.523C69.6421 324.385 70.3961 324.279 70.3961 324.219C70.3971 324.159 69.6411 324.149 68.2591 324.186C66.8891 324.277 64.8791 324.624 62.6091 325.656C60.3331 326.666 57.8951 328.502 55.8231 331.051C53.7341 333.59 51.9691 336.768 50.5481 340.25C49.1761 343.752 48.1421 347.18 47.5011 350.379C46.8621 353.572 46.5701 356.487 46.3791 358.929C46.1961 361.373 46.1271 363.353 46.0941 364.721C46.0631 366.088 46.0781 366.847 46.1381 366.85Z" fill="#E0E0E0"/>
<path d="M46.5341 362.421C46.5641 362.419 46.5831 362.082 46.5911 361.442C46.5891 360.707 46.5871 359.78 46.5841 358.643C46.5771 356.214 46.5781 352.699 46.7081 348.359C46.9231 339.678 47.6701 330.335 49.1141 317.164C50.4811 304.778 52.3161 290.364 54.2531 280.993C54.6681 278.862 55.0861 276.943 55.4801 275.264C55.8551 273.58 56.1761 272.129 56.4851 270.955C56.7511 269.85 56.9671 268.949 57.1391 268.235C57.2791 267.61 57.3391 267.278 57.3101 267.269C57.2811 267.261 57.1651 267.576 56.9701 268.187C56.7571 268.891 56.4881 269.779 56.1571 270.869C55.7971 272.033 55.4271 273.474 55.0061 275.151C54.5661 276.824 54.1051 278.737 53.6501 280.865C51.7341 289.357 49.7051 301.225 48.2481 314.428C46.8011 327.627 46.1501 339.645 46.0921 348.348C46.0401 352.699 46.1331 356.222 46.2441 358.652C46.3131 359.789 46.3701 360.715 46.4151 361.449C46.4641 362.088 46.5041 362.422 46.5341 362.421Z" fill="#E0E0E0"/>
<path d="M46.5921 339.241C46.6531 339.239 46.6421 338.2 46.5721 336.317C46.4641 334.438 46.2061 331.723 45.6771 328.396C45.1161 325.077 44.3321 321.137 43.1011 316.855C42.5671 314.897 41.3131 310.207 38.2751 303.199C34.2721 293.703 28.8341 285.939 24.1021 281.131C22.9921 279.855 21.7561 278.934 20.7681 278.032C20.2561 277.6 19.8041 277.168 19.3441 276.826C18.8811 276.507 18.4501 276.21 18.0511 275.934C16.4941 274.869 15.6221 274.308 15.5901 274.358C15.4501 274.548 19.0781 276.683 23.6581 281.556C28.2201 286.419 33.5061 294.129 37.4771 303.545C39.6911 308.652 41.2351 313.208 42.3311 317.075C43.5971 321.315 44.4371 325.216 45.0721 328.501C45.6761 331.794 46.0251 334.482 46.2361 336.344C46.4081 338.21 46.5331 339.243 46.5921 339.241Z" fill="#E0E0E0"/>
<path d="M22.6371 376.609L24.9591 408.43H65.8391L68.1611 376.609H22.6371Z" fill="#EBEBEB"/>
<path d="M73.0391 364.066H18.6881V376.608H73.0391V364.066Z" fill="#EBEBEB"/>
<path d="M18.6881 407.212V410.689H21.2421H72.1411V407.212H18.6881Z" fill="#E0E0E0"/>
<path d="M23.7451 416.422L21.2421 410.304H70.1941L67.2731 416.422H23.7451Z" fill="#E0E0E0"/>
<path d="M67.4021 387.009C67.4111 387.016 67.3461 387.116 67.2121 387.301C67.0501 387.516 66.8491 387.783 66.6011 388.111C66.0211 388.854 65.2231 389.875 64.2201 391.159L64.1141 391.295L64.0111 391.153C62.5141 389.083 60.5141 386.317 58.1601 383.061H58.4971C56.7571 385.525 54.8181 388.27 52.7371 391.217L52.5561 391.473L52.3541 391.232C50.2281 388.703 47.9191 385.956 45.5231 383.104L45.9171 383.099C45.7981 383.248 45.6701 383.409 45.5411 383.571C43.4221 386.227 41.3721 388.798 39.4331 391.229L39.2291 391.484L39.0411 391.218C36.9671 388.284 35.0301 385.543 33.2781 383.064L33.6131 383.08C30.7731 386.316 28.3641 389.06 26.5161 391.166L26.3901 391.31L26.2941 391.148C25.3581 389.576 24.6121 388.323 24.0721 387.414C23.8401 387.009 23.6521 386.681 23.5021 386.42C23.3761 386.193 23.3171 386.072 23.3281 386.065C23.3391 386.058 23.4201 386.166 23.5661 386.38C23.7321 386.631 23.9401 386.947 24.1971 387.337C24.7651 388.229 25.5481 389.459 26.5301 391.003L26.3081 390.985C28.1271 388.853 30.4971 386.075 33.2921 382.8L33.4681 382.594L33.6271 382.817C35.3941 385.284 37.3491 388.013 39.4411 390.934L39.0501 390.923C40.9851 388.488 43.0301 385.914 45.1441 383.254C45.2731 383.092 45.4011 382.931 45.5201 382.782L45.7141 382.538L45.9141 382.777C48.3041 385.634 50.6061 388.387 52.7261 390.921L52.3441 390.936C54.4461 388.004 56.4041 385.273 58.1611 382.821L58.3321 382.583L58.4981 382.821C60.8031 386.112 62.7601 388.908 64.2251 391.001L64.0171 390.995C65.0611 389.744 65.8901 388.749 66.4941 388.025C66.7631 387.714 66.9811 387.461 67.1571 387.257C67.3101 387.086 67.3931 387.001 67.4021 387.009Z" fill="#F5F5F5"/>
<path d="M68.7301 376.399C68.7301 376.54 58.4871 376.654 45.8551 376.654C33.2181 376.654 22.9771 376.54 22.9771 376.399C22.9771 376.259 33.2181 376.145 45.8551 376.145C58.4871 376.144 68.7301 376.258 68.7301 376.399Z" fill="#F5F5F5"/>
<path d="M355.501 15.5505L347.121 15.5957L347.346 57.2957L355.726 57.2505L355.501 15.5505Z" fill="#E0E0E0"/>
<path d="M296.223 15.6611L274.521 15.7783L274.645 38.7993L296.347 38.6821L296.223 15.6611Z" fill="#EBEBEB"/>
<path d="M317.822 15.5441L296.12 15.6613L296.244 38.6823L317.946 38.5651L317.822 15.5441Z" fill="#F5F5F5"/>
<path d="M274.547 22.1488C288.969 22.2678 303.427 22.1838 317.847 21.9498C318.144 21.9448 318.142 21.4908 317.844 21.4888C303.422 21.4088 288.964 21.4798 274.544 21.7538C274.291 21.7578 274.293 22.1468 274.547 22.1488Z" fill="#E0E0E0"/>
<path d="M300.419 38.2992L260.99 38.5121L261.092 57.2721L300.521 57.0592L300.419 38.2992Z" fill="#EBEBEB"/>
<path d="M339.661 38.0866L300.232 38.2996L300.334 57.0596L339.763 56.8466L339.661 38.0866Z" fill="#F5F5F5"/>
<path d="M261.011 43.7397C287.204 44.0367 313.489 43.7707 339.681 43.3517C339.978 43.3467 339.976 42.8918 339.679 42.8908C313.484 42.7528 287.198 42.7677 261.01 43.3447C260.754 43.3507 260.756 43.7377 261.011 43.7397Z" fill="#E0E0E0"/>
<path d="M399.023 57.2828H246.266V64.0038H399.023V57.2828Z" fill="#E0E0E0"/>
<path d="M277.476 60.5148H271.275V83.4488H277.476V60.5148Z" fill="#E0E0E0"/>
<path d="M370.047 60.5148H363.846V83.4488H370.047V60.5148Z" fill="#E0E0E0"/>
<path d="M363.679 -2.49768e-05L355.299 0.0452271L355.608 57.3972L363.988 57.352L363.679 -2.49768e-05Z" fill="#EBEBEB"/>
<path d="M376.774 10.6771L363.752 10.7474L364.003 57.2244L377.025 57.1541L376.774 10.6771Z" fill="#F5F5F5"/>
<path d="M376.678 19.6458C376.678 19.7708 373.763 19.8718 370.168 19.8718C366.571 19.8718 363.657 19.7708 363.657 19.6458C363.657 19.5208 366.572 19.4198 370.168 19.4198C373.763 19.4208 376.678 19.5218 376.678 19.6458Z" fill="#E0E0E0"/>
<path d="M376.678 17.6938C376.678 17.8188 373.763 17.9198 370.168 17.9198C366.571 17.9198 363.657 17.8188 363.657 17.6938C363.657 17.5688 366.572 17.4678 370.168 17.4678C373.763 17.4678 376.678 17.5688 376.678 17.6938Z" fill="#E0E0E0"/>
<path d="M376.678 50.1758C376.678 50.3008 373.763 50.4018 370.168 50.4018C366.571 50.4018 363.657 50.3008 363.657 50.1758C363.657 50.0508 366.572 49.9498 370.168 49.9498C373.763 49.9508 376.678 50.0518 376.678 50.1758Z" fill="#E0E0E0"/>
<path d="M376.678 48.2238C376.678 48.3488 373.763 48.4498 370.168 48.4498C366.571 48.4498 363.657 48.3488 363.657 48.2238C363.657 48.0988 366.572 47.9978 370.168 47.9978C373.763 47.9978 376.678 48.0988 376.678 48.2238Z" fill="#E0E0E0"/>
<path d="M370.377 43.9638C370.252 43.9638 370.151 39.2748 370.151 33.4918C370.151 27.7068 370.252 23.0188 370.377 23.0188C370.502 23.0188 370.603 27.7068 370.603 33.4918C370.603 39.2748 370.501 43.9638 370.377 43.9638Z" fill="#E0E0E0"/>
<path d="M390.993 22.1058H376.819V57.1868H390.993V22.1058Z" fill="#EBEBEB"/>
<path d="M359.358 12.2167C360.689 12.2167 361.767 11.1382 361.767 9.80774C361.767 8.47729 360.689 7.39874 359.358 7.39874C358.028 7.39874 356.949 8.47729 356.949 9.80774C356.949 11.1382 358.028 12.2167 359.358 12.2167Z" fill="#E0E0E0"/>
<path d="M360.103 16.4327H358.614V50.5507H360.103V16.4327Z" fill="#E0E0E0"/>
<path d="M441.731 418.096C441.731 418.24 345.618 418.356 227.084 418.356C108.509 418.356 12.4171 418.239 12.4171 418.096C12.4171 417.952 108.509 417.836 227.084 417.836C345.618 417.836 441.731 417.952 441.731 418.096Z" fill="#263238"/>
<path d="M126.283 51.0958C130.977 56.7918 133.581 64.1728 133.501 71.5538C133.455 75.7718 132.678 80.4228 135.132 83.8538C136.994 86.4578 140.39 87.7608 141.903 90.5828C143.723 93.9758 142.171 98.2618 143.291 101.946C144.878 107.168 150.995 109.352 154.622 113.431C157.767 116.968 158.931 122.144 157.664 126.705C156.397 131.266 152.761 135.082 148.288 136.63C145.886 137.461 143.14 137.639 140.866 136.506C138.413 135.283 136.897 132.775 135.669 130.325C133.254 125.51 112.082 99.4528 110.883 94.2008" fill="#263238"/>
<path d="M110.881 44.9528C102.224 43.5588 93.9031 49.3068 90.2551 57.2808C86.6071 65.2548 86.5081 74.3238 86.2391 83.0888C85.9701 91.8538 85.3541 101.003 80.8801 108.545C78.0401 113.332 73.6431 117.53 72.9531 123.053C72.3361 127.998 74.8951 132.978 74.0451 137.888C73.3051 142.163 70.0481 145.882 70.1771 150.219C70.3321 155.436 75.6981 159.367 80.9161 159.507C86.1331 159.647 91.0081 156.913 95.0981 153.672C101.735 148.412 107.115 141.576 110.667 133.889" fill="#263238"/>
<path d="M96.6391 65.5978C95.4951 56.4678 102.1 48.1238 111.371 47.2408C120.109 46.4078 127.875 52.9148 129.184 61.5938C130.332 69.2028 131.319 76.8828 131.284 79.6718C131.177 88.0838 126.255 91.3578 124.26 92.3418C123.805 92.5668 122.549 92.8208 122.046 92.8928C122.015 92.8978 121.993 92.9268 121.999 92.9578L123.867 102.614C124.714 108.941 121.182 114.583 114.866 115.504C108.529 116.428 103.575 111.568 102.607 105.237L96.6391 65.5978Z" fill="#FFBE9D"/>
<path d="M127.464 65.2788C127.325 65.4758 126.214 64.8798 124.791 65.0908C123.366 65.2818 122.428 66.1668 122.248 66.0148C122.161 65.9488 122.283 65.6128 122.689 65.2148C123.089 64.8198 123.806 64.3878 124.694 64.2618C125.582 64.1378 126.375 64.3548 126.853 64.6268C127.339 64.8998 127.533 65.1898 127.464 65.2788Z" fill="#263238"/>
<path d="M114.801 68.3548C114.662 68.5518 113.55 67.9558 112.128 68.1668C110.704 68.3568 109.765 69.2418 109.585 69.0898C109.498 69.0238 109.618 68.6888 110.027 68.2908C110.427 67.8958 111.144 67.4638 112.031 67.3378C112.919 67.2138 113.713 67.4308 114.19 67.7028C114.676 67.9758 114.87 68.2658 114.801 68.3548Z" fill="#263238"/>
<path d="M119.992 75.9878C119.974 75.9078 120.836 75.6258 122.244 75.2338C122.602 75.1428 122.936 75.0208 122.961 74.7638C123.008 74.4888 122.799 74.1188 122.561 73.7218C122.091 72.8918 121.599 72.0218 121.082 71.1098C119.014 67.3858 117.461 64.3018 117.611 64.2198C117.762 64.1378 119.56 67.0898 121.628 70.8138C122.129 71.7338 122.608 72.6098 123.064 73.4488C123.262 73.8418 123.567 74.2758 123.461 74.8478C123.403 75.1338 123.165 75.3698 122.941 75.4668C122.718 75.5718 122.514 75.6058 122.336 75.6428C120.904 75.9318 120.01 76.0688 119.992 75.9878Z" fill="#263238"/>
<path d="M121.988 92.9008C121.988 92.9008 116.556 94.1538 109.077 91.0228C109.077 91.0228 112.306 97.9738 122.492 95.5028L121.988 92.9008Z" fill="#EB996E"/>
<path d="M114.085 64.6248C114.001 65.0328 112.553 65.0558 110.911 65.5008C109.261 65.9128 107.985 66.5978 107.713 66.2828C107.59 66.1308 107.771 65.7328 108.262 65.2778C108.747 64.8248 109.557 64.3438 110.543 64.0858C111.53 63.8298 112.471 63.8558 113.116 64.0138C113.765 64.1728 114.119 64.4318 114.085 64.6248Z" fill="#263238"/>
<path d="M126.296 62.1238C126.092 62.4838 125.063 62.2908 123.881 62.4478C122.694 62.5628 121.734 62.9828 121.455 62.6778C121.33 62.5278 121.44 62.1808 121.832 61.8118C122.218 61.4438 122.9 61.0898 123.715 60.9958C124.529 60.9038 125.274 61.0948 125.733 61.3658C126.198 61.6368 126.383 61.9498 126.296 62.1238Z" fill="#263238"/>
<path d="M111.716 70.1938C111.814 70.8118 112.417 71.2388 113.065 71.1488C113.711 71.0588 114.157 70.4858 114.06 69.8678C113.962 69.2498 113.358 68.8218 112.712 68.9118C112.064 69.0018 111.618 69.5748 111.716 70.1938Z" fill="#263238"/>
<path d="M124.323 67.4658C124.42 68.0838 125.025 68.5108 125.672 68.4208C126.318 68.3308 126.764 67.7578 126.667 67.1398C126.569 66.5218 125.965 66.0938 125.319 66.1838C124.671 66.2738 124.225 66.8478 124.323 67.4658Z" fill="#263238"/>
<path d="M122.232 78.7608C121.316 78.4958 120.527 78.9598 120.156 79.6238C119.784 80.2878 119.873 81.1968 120.408 81.7378C120.943 82.2798 121.895 82.3648 122.486 81.8848C122.886 81.5588 123.088 81.0388 123.139 80.5248C123.186 80.0498 123.109 79.5418 122.816 79.1658C122.523 78.7888 121.981 78.5868 121.545 78.7808" fill="#EB996E"/>
<path d="M128.074 54.7878C127.423 51.6238 125.244 48.9248 122.592 47.0808C120.339 45.5148 117.674 44.4778 114.932 44.3938C112.189 44.3098 109.378 45.2318 107.397 47.1298C105.932 48.5328 105.181 50.5208 105.113 52.5468L105.272 51.1488C104.861 52.2968 104.862 53.5438 105.29 54.6728C105.291 54.6748 105.291 54.6778 105.291 54.6798L105.29 54.6728C105.522 55.2858 105.8 55.8988 106.046 56.5138C106.746 58.2618 108.102 59.7368 109.784 60.5818C110.559 60.9708 111.418 61.2318 112.285 61.1908C113.151 61.1498 114.025 60.7768 114.551 60.0868C115.302 59.1018 115.215 57.7358 115.093 56.5028C115.837 57.6648 116.626 58.8698 117.822 59.5578C119.018 60.2458 120.745 60.2218 121.587 59.1278C122.402 58.0698 122.079 56.5488 121.607 55.2988C122.371 56.4638 123.466 57.4098 124.73 57.9978C125.429 58.3228 126.254 58.5358 126.962 58.2298C127.562 57.9698 127.967 57.3688 128.12 56.7328C128.274 56.0978 128.206 55.4288 128.074 54.7878Z" fill="#263238"/>
<path d="M120.849 57.3998C120.758 57.4028 120.773 56.2138 120.389 54.3698C120.003 52.5568 119.085 49.9938 116.936 48.0998C115.877 47.1648 114.659 46.5178 113.476 46.2318C112.291 45.9388 111.164 45.9738 110.256 46.1508C108.417 46.5248 107.526 47.3968 107.471 47.3058C107.453 47.2858 107.644 47.0518 108.084 46.7338C108.521 46.4158 109.226 46.0348 110.175 45.7918C111.12 45.5578 112.314 45.4788 113.586 45.7648C114.858 46.0448 116.162 46.7218 117.281 47.7098C119.553 49.7138 120.451 52.4308 120.751 54.2998C120.904 55.2518 120.938 56.0308 120.931 56.5668C120.923 57.1058 120.881 57.4008 120.849 57.3998Z" fill="#455A64"/>
<path d="M212.948 173.991L174.497 158.748C174.497 158.748 154.799 132.917 155.21 132.416L141.384 147.559L161.48 174.763L208.047 185.664L230.101 185.842C228.395 177.36 212.948 173.991 212.948 173.991Z" fill="#FFBE9D"/>
<path d="M129.141 100.303L123.906 98.2738L101.286 101.142V105.139L100.638 105.218C100.638 105.218 93.6121 106.495 86.7811 110.596C78.5101 115.562 74.2111 125.14 75.7431 134.666C76.6631 140.386 78.4461 147.339 81.8811 151.357C88.4501 159.042 94.4501 149.544 94.4501 149.544C94.4501 149.544 98.5741 158.949 98.3371 163.397C98.1391 167.122 96.4911 174.884 95.9611 177.308C95.8721 177.717 96.1401 178.111 96.5511 178.187L144.27 187.009L144.503 175.346L142.985 127.374L140.879 108.742C140.879 108.744 140.946 99.8428 129.141 100.303Z" fill="#E8505B"/>
<path d="M140.147 105.645L158.341 131.933L143.693 149.776L140.147 105.645Z" fill="#E8505B"/>
<path d="M144.047 160.965C144.011 160.964 143.987 160.36 143.975 159.268C143.96 158.089 143.941 156.532 143.917 154.649C143.823 150.753 143.603 145.366 142.827 139.472C142.073 133.574 140.927 128.305 140.05 124.507C139.619 122.673 139.263 121.157 138.993 120.009C138.744 118.946 138.623 118.354 138.657 118.345C138.692 118.336 138.879 118.91 139.189 119.958C139.5 121.005 139.923 122.528 140.408 124.42C141.378 128.202 142.587 133.479 143.344 139.406C144.124 145.327 144.286 150.741 144.286 154.646C144.267 156.6 144.239 158.181 144.178 159.272C144.128 160.363 144.083 160.966 144.047 160.965Z" fill="#263238"/>
<path d="M99.2771 120.994C99.2741 121.078 97.8961 121.061 95.6811 121.179C93.4661 121.295 90.4131 121.599 87.1011 122.281C83.7891 122.97 80.8661 123.905 78.7881 124.678C76.7081 125.449 75.4501 126.012 75.4141 125.936C75.3981 125.904 75.6971 125.729 76.2511 125.441C76.8031 125.148 77.6231 124.767 78.6531 124.335C80.7121 123.468 83.6491 122.467 86.9951 121.771C90.3411 121.081 93.4341 120.833 95.6681 120.811C96.7851 120.798 97.6891 120.822 98.3121 120.872C98.9351 120.917 99.2781 120.959 99.2771 120.994Z" fill="#FAFAFA"/>
<path d="M141.422 133.03C141.433 133.097 140.57 133.306 139.154 133.523C137.738 133.74 135.767 133.95 133.58 134.026C131.393 134.1 129.411 134.026 127.984 133.906C126.556 133.787 125.681 133.637 125.687 133.569C125.693 133.494 126.578 133.513 128.002 133.538C129.426 133.564 131.392 133.579 133.562 133.506C135.731 133.431 137.691 133.281 139.11 133.158C140.53 133.035 141.411 132.955 141.422 133.03Z" fill="#FAFAFA"/>
<path d="M149.775 121.132C149.868 121.229 148.257 122.838 145.872 124.29C143.493 125.753 141.327 126.454 141.283 126.327C141.225 126.184 143.267 125.281 145.6 123.845C147.939 122.422 149.674 121.016 149.775 121.132Z" fill="#FAFAFA"/>
<path d="M142.421 108.943C142.511 109.032 140.365 110.961 137.122 112.321C133.888 113.704 131.01 113.902 131.008 113.776C130.981 113.616 133.763 113.193 136.919 111.841C140.085 110.516 142.325 108.812 142.421 108.943Z" fill="#FAFAFA"/>
<path d="M143.414 153.381C143.428 153.414 143.091 153.589 142.469 153.878C141.849 154.172 140.929 154.549 139.777 154.971C137.474 155.818 134.197 156.764 130.488 157.338C126.776 157.904 123.366 157.986 120.915 157.869C119.689 157.812 118.699 157.729 118.019 157.634C117.339 157.546 116.965 157.48 116.969 157.444C116.977 157.359 118.486 157.481 120.925 157.501C123.362 157.523 126.734 157.384 130.41 156.824C134.083 156.256 137.341 155.377 139.659 154.624C141.978 153.872 143.381 153.302 143.414 153.381Z" fill="#FAFAFA"/>
<path d="M143.785 166.939C143.792 166.955 143.645 167.038 143.358 167.181C143.014 167.344 142.596 167.543 142.091 167.782C140.991 168.304 139.362 168.981 137.322 169.744C135.284 170.515 132.813 171.312 130.034 172.076C127.248 172.812 124.151 173.499 120.865 174.019C117.575 174.519 114.414 174.803 111.536 174.945C108.656 175.059 106.059 175.049 103.883 174.931C101.708 174.822 99.9511 174.67 98.7441 174.506C98.1911 174.431 97.7331 174.368 97.3551 174.317C97.0381 174.268 96.8731 174.234 96.8751 174.216C96.8771 174.198 97.0461 174.197 97.3661 174.213C97.7461 174.238 98.2061 174.268 98.7631 174.304C99.9731 174.406 101.728 174.501 103.896 174.562C106.064 174.632 108.648 174.605 111.511 174.465C114.373 174.297 117.512 174.001 120.784 173.503C124.051 172.986 127.132 172.317 129.91 171.61C132.68 170.876 135.151 170.119 137.196 169.396C139.243 168.681 140.888 168.058 142.01 167.594C142.529 167.391 142.959 167.222 143.313 167.084C143.616 166.974 143.777 166.923 143.785 166.939Z" fill="#FAFAFA"/>
<path d="M56.0421 379.522L50.6371 403.955L40.7901 422.047C40.0801 423.351 40.6231 424.983 41.9721 425.603C42.7281 425.95 43.5971 425.913 44.3171 425.497C48.8981 422.85 65.7031 413.029 65.9981 411.219C66.3401 409.123 73.4101 385.825 73.4101 385.825L56.0421 379.522Z" fill="#E8505B"/>
<g opacity="0.6">
<path d="M41.9721 425.603L66.4011 409.579L66.1481 410.609C65.9301 411.499 65.4061 412.285 64.6631 412.821C62.6751 414.256 57.0991 418.098 44.3901 425.516C43.6511 425.948 42.7401 425.981 41.9721 425.603Z" fill="white"/>
</g>
<g opacity="0.6">
<path d="M63.3361 400.516C62.6241 400.788 62.1991 401.66 62.4411 402.382C62.6831 403.105 63.5661 403.545 64.2831 403.286C65.0001 403.027 65.5421 401.996 65.2211 401.305C64.9001 400.614 63.8341 400.154 63.2011 400.578" fill="white"/>
</g>
<path d="M50.1321 416.347C49.9781 416.38 49.7421 414.973 48.4651 413.934C47.2191 412.857 45.7921 412.87 45.7981 412.713C45.7921 412.648 46.1451 412.535 46.7341 412.594C47.3181 412.649 48.1201 412.931 48.8181 413.513C49.5131 414.098 49.9301 414.839 50.0861 415.405C50.2471 415.974 50.1971 416.342 50.1321 416.347Z" fill="#263238"/>
<path d="M47.6021 419.177C47.4611 419.254 46.8741 418.272 45.7061 417.604C44.5521 416.91 43.4101 416.877 43.4081 416.716C43.3681 416.575 44.6641 416.346 45.9841 417.13C47.3121 417.9 47.7451 419.142 47.6021 419.177Z" fill="#263238"/>
<path d="M54.3771 412.966C54.2351 413.054 53.3411 411.539 51.6141 410.341C49.9061 409.115 48.1801 408.78 48.2151 408.616C48.2071 408.477 50.0961 408.582 51.9311 409.892C53.7791 411.183 54.5111 412.927 54.3771 412.966Z" fill="#263238"/>
<path d="M56.6411 405.677C56.5401 405.807 55.3351 404.916 53.6041 404.425C51.8791 403.909 50.3841 404.013 50.3691 403.85C50.3311 403.715 51.9021 403.348 53.7571 403.898C55.6171 404.43 56.7461 405.583 56.6411 405.677Z" fill="#263238"/>
<path d="M58.4091 398.545C58.2991 398.667 57.1481 397.526 55.2821 397.158C53.4241 396.748 51.9131 397.332 51.8611 397.177C51.8341 397.116 52.1741 396.877 52.8141 396.69C53.4491 396.502 54.3921 396.412 55.3951 396.62C56.3971 396.831 57.2251 397.291 57.7321 397.718C58.2431 398.144 58.4581 398.5 58.4091 398.545Z" fill="#263238"/>
<path d="M55.6581 395.81C55.6271 395.803 55.6521 395.463 55.8501 394.883C56.0481 394.308 56.4321 393.483 57.1711 392.655C57.5441 392.268 57.9601 391.754 58.7171 391.601C59.0941 391.522 59.5811 391.708 59.7911 392.101C60.0001 392.484 59.9921 392.905 59.9061 393.292C59.5021 394.829 57.8121 395.996 56.0221 395.792C54.2331 395.556 52.8991 394.174 52.5361 392.673C52.4691 392.291 52.4691 391.843 52.7581 391.478C53.0451 391.109 53.5791 391.065 53.9131 391.211C54.6081 391.496 54.9621 392.023 55.3101 392.436C55.9821 393.315 56.3271 394.15 56.5051 394.731C56.6841 395.316 56.7041 395.656 56.6721 395.662C56.5711 395.705 56.3511 394.318 55.0071 392.679C54.6611 392.293 54.2711 391.817 53.7631 391.641C53.5161 391.554 53.2731 391.601 53.1331 391.783C52.9921 391.956 52.9681 392.274 53.0331 392.577C53.3491 393.81 54.5711 395.07 56.0871 395.246C57.5931 395.433 59.0781 394.405 59.4141 393.171C59.4911 392.873 59.4851 392.553 59.3691 392.336C59.2551 392.123 59.0271 392.016 58.7811 392.052C58.2611 392.126 57.8191 392.559 57.4551 392.92C55.9941 394.453 55.7601 395.86 55.6581 395.81Z" fill="#263238"/>
<g opacity="0.3">
<path d="M55.4111 382.173L54.2421 387.777L71.9351 390.712L73.4101 385.825L56.0421 379.522L55.4111 382.173Z" fill="black"/>
</g>
<path d="M135.097 388.564L133.636 408.088C133.636 408.088 152.991 416.13 153.072 419.764L115.115 418.291L116.142 387.777L135.097 388.564Z" fill="#E8505B"/>
<g opacity="0.6">
<path d="M121.963 405.988C121.221 406.16 120.681 406.967 120.823 407.715C120.965 408.464 121.78 409.02 122.525 408.861C123.27 408.702 123.948 407.754 123.723 407.025C123.498 406.297 122.505 405.696 121.82 406.03" fill="white"/>
</g>
<g opacity="0.6">
<path d="M115.115 418.292L115.339 415.22L151.648 417.78C151.648 417.78 153.309 418.581 153.072 419.764L115.115 418.292Z" fill="white"/>
</g>
<path d="M134.259 407.918C134.246 408.103 133.316 408.151 132.381 408.712C131.431 409.248 130.93 410.033 130.762 409.953C130.593 409.91 130.912 408.813 132.056 408.154C133.194 407.485 134.306 407.75 134.259 407.918Z" fill="#263238"/>
<path d="M138.176 409.719C138.212 409.9 137.396 410.184 136.737 410.944C136.055 411.684 135.863 412.525 135.679 412.51C135.504 412.532 135.418 411.442 136.256 410.513C137.086 409.578 138.179 409.543 138.176 409.719Z" fill="#263238"/>
<path d="M140.253 414.572C140.083 414.605 139.861 413.669 140.376 412.672C140.884 411.671 141.774 411.305 141.846 411.462C141.945 411.618 141.361 412.141 140.95 412.966C140.521 413.782 140.437 414.561 140.253 414.572Z" fill="#263238"/>
<path d="M134.098 403.432C134.014 403.598 133.173 403.309 132.123 403.34C131.072 403.349 130.243 403.669 130.153 403.507C130.051 403.369 130.873 402.714 132.111 402.695C133.348 402.666 134.195 403.29 134.098 403.432Z" fill="#263238"/>
<g opacity="0.3">
<path d="M134.803 392.43L134.547 395.91L115.898 395.017L116.024 390.993L134.803 392.43Z" fill="black"/>
</g>
<path d="M134.32 399.488C134.319 399.565 133.582 399.651 132.419 399.405C131.84 399.282 131.162 399.064 130.454 398.717C130.101 398.543 129.74 398.337 129.385 398.095C129.214 397.976 129.011 397.854 128.828 397.626C128.63 397.425 128.532 396.929 128.781 396.637C128.987 396.353 129.335 396.24 129.61 396.245C129.89 396.247 130.115 396.312 130.319 396.371C130.738 396.49 131.129 396.646 131.485 396.822C132.198 397.18 132.771 397.62 133.193 398.04C134.042 398.89 134.316 399.594 134.251 399.627C134.165 399.685 133.759 399.088 132.889 398.38C132.455 398.028 131.898 397.659 131.231 397.359C130.897 397.211 130.536 397.08 130.153 396.98C129.755 396.859 129.413 396.843 129.303 397.018C129.263 397.085 129.257 397.112 129.336 397.233C129.419 397.345 129.578 397.457 129.745 397.576C130.072 397.808 130.403 398.011 130.727 398.189C131.376 398.543 132.001 398.792 132.537 398.965C133.614 399.309 134.327 399.387 134.32 399.488Z" fill="#263238"/>
<path d="M134.068 399.744C134.001 399.77 133.659 399.091 133.638 397.888C133.629 397.291 133.719 396.572 133.978 395.817C134.109 395.44 134.283 395.056 134.507 394.682C134.744 394.316 135.035 393.824 135.757 393.769C136.133 393.77 136.434 394.075 136.53 394.33C136.646 394.592 136.662 394.813 136.698 395.034C136.751 395.48 136.725 395.914 136.65 396.314C136.499 397.117 136.142 397.777 135.762 398.246C134.982 399.201 134.2 399.392 134.187 399.329C134.129 399.234 134.789 398.901 135.393 397.977C135.691 397.522 135.963 396.917 136.064 396.214C136.115 395.864 136.124 395.491 136.072 395.114C136.028 394.708 135.89 394.377 135.737 394.412C135.549 394.402 135.216 394.693 135.048 395.009C134.84 395.342 134.671 395.684 134.537 396.021C134.272 396.698 134.143 397.35 134.095 397.904C133.999 399.018 134.17 399.72 134.068 399.744Z" fill="#263238"/>
<path d="M95.7971 178.049C95.7971 178.049 89.7701 178.313 85.7991 198.835C81.8281 219.357 51.3041 385.625 51.3041 385.625L73.4101 385.825L115.115 227.749L112.344 390.712L134.803 392.431C134.803 392.431 151.657 212.145 151.815 201.655C152.013 188.577 144.502 175.348 144.502 175.348L95.7971 178.049Z" fill="#263238"/>
<path d="M126.182 176.292C126.323 176.321 124.029 188.045 121.059 202.475C118.088 216.91 115.566 228.584 115.425 228.555C115.284 228.526 117.578 216.805 120.549 202.37C123.518 187.94 126.041 176.263 126.182 176.292Z" fill="#455A64"/>
<path d="M129.629 179.22C129.591 179.169 130.228 178.98 130.914 179.593C131.229 179.888 131.54 180.379 131.517 181.007C131.505 181.643 131.024 182.262 130.385 182.524C129.751 182.798 128.972 182.71 128.509 182.275C128.043 181.853 127.909 181.288 127.918 180.856C127.958 179.937 128.538 179.613 128.548 179.676C128.617 179.728 128.222 180.104 128.286 180.846C128.32 181.2 128.474 181.631 128.82 181.909C129.154 182.193 129.697 182.248 130.184 182.044C130.67 181.838 131.01 181.411 131.039 180.974C131.081 180.533 130.881 180.121 130.651 179.85C130.163 179.286 129.618 179.306 129.629 179.22Z" fill="#455A64"/>
<path d="M128.671 187.347C128.658 187.284 129.293 187.368 129.64 188.179C129.794 188.562 129.863 189.117 129.579 189.651C129.3 190.197 128.615 190.521 127.955 190.462C127.294 190.418 126.667 189.992 126.476 189.409C126.277 188.837 126.432 188.3 126.643 187.945C127.112 187.197 127.752 187.213 127.729 187.273C127.761 187.352 127.258 187.475 126.968 188.117C126.833 188.424 126.762 188.852 126.923 189.236C127.07 189.619 127.499 189.902 127.995 189.942C128.491 189.979 128.958 189.766 129.163 189.41C129.381 189.056 129.378 188.622 129.292 188.298C129.105 187.62 128.627 187.42 128.671 187.347Z" fill="#455A64"/>
<path d="M107.486 179.426C107.516 179.436 107.437 179.805 107.223 180.454C107.01 181.103 106.637 182.022 106.058 183.102C104.918 185.254 102.792 188.031 99.6431 190.105C96.4941 192.181 93.1031 193.04 90.6761 193.239C89.4561 193.346 88.4641 193.326 87.7841 193.266C87.1041 193.207 86.7331 193.134 86.7361 193.103C86.7411 193.005 88.2461 193.176 90.6361 192.874C93.0111 192.586 96.2931 191.691 99.3571 189.672C102.42 187.653 104.536 184.991 105.738 182.922C106.957 180.843 107.394 179.392 107.486 179.426Z" fill="#455A64"/>
<path d="M150.501 194.011C150.48 194.04 150.245 193.897 149.837 193.611C149.423 193.334 148.869 192.866 148.234 192.239C146.961 190.991 145.459 188.961 144.467 186.402C143.485 183.839 143.236 181.326 143.342 179.546C143.391 178.655 143.488 177.937 143.61 177.453C143.721 176.967 143.799 176.704 143.834 176.711C143.928 176.728 143.714 177.806 143.711 179.555C143.701 181.3 144 183.725 144.953 186.215C145.917 188.7 147.322 190.699 148.501 191.985C149.677 193.28 150.558 193.936 150.501 194.011Z" fill="#455A64"/>
<path d="M87.0061 138.501L96.8281 139.044C97.4491 142.228 99.6051 147.097 99.6051 147.097C107.511 133.374 113.641 114.988 115.162 107.598C114.94 106.86 114.678 106.043 114.35 105.131C113.972 104.078 114.296 102.083 114.475 100.976C114.74 99.3308 115.201 97.1168 115.339 96.0928C115.76 92.9708 116.263 92.4798 117.352 92.8328C118.834 93.3128 116.745 101.602 117.959 101.782C118.612 101.879 119.409 99.0388 119.641 96.7088C119.873 94.3788 120.926 87.2118 121.696 86.7338C122.825 86.0338 123.809 87.1408 123.524 89.4618C123.236 91.8108 122.872 98.8128 124.103 98.9078C125.316 99.0018 126.335 87.1188 126.335 87.1188C126.335 87.1188 126.143 84.5328 127.569 84.5948C130.14 84.7068 128.131 97.2338 127.911 98.4208C127.757 99.2468 129.093 99.3978 129.21 98.5018C129.331 97.5798 129.952 86.6188 132.569 86.7068C134.578 86.7748 131.012 97.0298 132.141 99.4078C133.269 101.785 134.053 91.3338 135.972 91.4778C136.686 91.5318 137.214 91.6718 135.902 97.5858C135.197 100.765 133.125 106.609 131.314 111.448C128.274 127.847 114.929 180.31 94.0091 170.707C82.3031 165.333 76.8401 138.727 76.8401 138.727L87.0061 138.501Z" fill="#FFBE9D"/>
<path d="M131.313 111.455C131.303 111.451 131.337 111.33 131.413 111.096C131.503 110.831 131.618 110.491 131.763 110.064C132.09 109.119 132.548 107.793 133.132 106.105C133.715 104.383 134.431 102.275 135.143 99.7978C135.508 98.5608 135.803 97.2218 136.079 95.7848C136.212 95.0678 136.349 94.3288 136.432 93.5698C136.467 93.1928 136.507 92.8048 136.485 92.4318C136.457 92.0418 136.397 91.7238 136.09 91.7178C135.771 91.6318 135.558 91.8948 135.339 92.2258C135.139 92.5588 134.982 92.9418 134.843 93.3348C134.563 94.1228 134.343 94.9608 134.126 95.8188C133.908 96.6778 133.707 97.5598 133.446 98.4588C133.288 98.9128 133.219 99.3508 132.846 99.8388C132.776 99.8978 132.713 99.9768 132.572 100.004C132.418 100.044 132.304 99.9838 132.196 99.9188C132.052 99.7908 131.983 99.6618 131.92 99.5418C131.808 99.2888 131.739 99.0298 131.709 98.7788C131.53 96.7718 131.988 94.8318 132.301 92.8178C132.473 91.8138 132.655 90.7978 132.787 89.7688C132.851 89.2548 132.905 88.7368 132.911 88.2258C132.93 87.7518 132.847 87.1108 132.639 87.0208C132.383 86.9238 131.92 87.2138 131.675 87.6378C131.399 88.0548 131.195 88.5498 131.02 89.0558C130.673 90.0728 130.447 91.1578 130.251 92.2548C130.061 93.3558 129.912 94.4778 129.789 95.6148C129.733 96.1848 129.677 96.7568 129.621 97.3318L129.546 98.1998C129.524 98.4348 129.525 98.9258 129.148 99.2078C128.801 99.4678 128.336 99.4958 127.965 99.2538C127.779 99.1338 127.634 98.9108 127.606 98.6858C127.582 98.5718 127.603 98.4658 127.611 98.3648L127.648 98.1508C127.737 97.5708 127.826 96.9878 127.916 96.4028C128.081 95.2288 128.224 94.0418 128.338 92.8448C128.45 91.6478 128.533 90.4388 128.552 89.2258C128.554 88.0258 128.545 86.7678 128.2 85.6678C128.087 85.3348 127.902 85.0308 127.696 84.9438C127.484 84.8678 127.178 84.9448 127.021 85.1588C126.675 85.6458 126.617 86.4478 126.644 87.1018L126.645 87.1338L126.643 87.1518C126.429 89.5018 126.174 91.8118 125.835 94.0818C125.66 95.2168 125.475 96.3398 125.19 97.4508C125.119 97.7288 125.034 98.0058 124.936 98.2838C124.803 98.5608 124.767 98.8428 124.37 99.1468C124.026 99.3108 123.771 99.1248 123.635 98.9858C123.489 98.8328 123.43 98.6818 123.363 98.5338C123.247 98.2398 123.19 97.9548 123.138 97.6718C122.82 95.4178 122.952 93.2488 123.079 91.1218C123.121 90.0528 123.382 88.9948 123.241 88.0558C123.173 87.5908 122.992 87.1248 122.683 86.9168C122.531 86.8168 122.357 86.7938 122.17 86.8378C122.077 86.8668 121.983 86.8998 121.891 86.9558C121.801 87.0308 121.819 87.0028 121.75 87.1288C121.361 87.9458 121.172 88.9788 120.962 89.9128C120.765 90.8698 120.597 91.8208 120.444 92.7608C120.292 93.7008 120.157 94.6288 120.037 95.5428C119.912 96.4488 119.85 97.3678 119.672 98.2608C119.502 99.1508 119.296 100.017 118.972 100.848C118.89 101.055 118.796 101.26 118.683 101.462C118.543 101.65 118.464 101.895 118.081 102.012C117.863 102.072 117.673 101.923 117.575 101.798C117.491 101.669 117.45 101.546 117.417 101.428C117.366 101.197 117.344 100.977 117.336 100.762C117.314 99.0578 117.567 97.4948 117.652 95.9858C117.699 95.2368 117.733 94.4968 117.646 93.8138C117.601 93.4928 117.498 93.1158 117.314 93.0408C117.046 92.9338 116.7 92.8778 116.499 93.0228C116.057 93.3418 115.903 94.0738 115.759 94.6588C115.618 95.2768 115.553 95.8908 115.439 96.4818C115.023 98.8468 114.583 100.878 114.369 102.539C114.271 103.369 114.232 104.118 114.337 104.742C114.476 105.347 114.679 105.883 114.795 106.304C114.913 106.702 115.008 107.021 115.082 107.27C115.143 107.489 115.17 107.601 115.16 107.605C115.15 107.608 115.104 107.501 115.024 107.288C114.935 107.044 114.823 106.732 114.681 106.342C114.542 105.916 114.333 105.429 114.162 104.776C114.032 104.121 114.056 103.358 114.137 102.515C114.318 100.825 114.722 98.8078 115.106 96.4378C115.212 95.8478 115.269 95.2228 115.406 94.5858C115.478 94.2668 115.547 93.9428 115.669 93.6168C115.796 93.3008 115.932 92.9388 116.295 92.6998C116.683 92.4588 117.112 92.5468 117.475 92.6848C117.944 92.9528 117.961 93.4028 118.043 93.7558C118.145 94.5038 118.113 95.2508 118.073 96.0128C118 97.5308 117.763 99.1258 117.797 100.741C117.805 100.94 117.829 101.136 117.869 101.314C117.911 101.508 118.011 101.583 117.991 101.546C118.026 101.553 118.179 101.38 118.265 101.223C118.359 101.051 118.444 100.865 118.519 100.671C118.818 99.8918 119.016 99.0378 119.176 98.1718C119.343 97.3078 119.399 96.4058 119.52 95.4788C119.635 94.5578 119.766 93.6238 119.914 92.6778C120.063 91.7318 120.227 90.7738 120.422 89.8038C120.644 88.8288 120.785 87.8668 121.259 86.8518C121.288 86.7498 121.494 86.5218 121.61 86.4668C121.736 86.3908 121.88 86.3348 122.031 86.2908C122.336 86.2098 122.71 86.2548 122.987 86.4408C123.537 86.8288 123.711 87.4318 123.803 87.9678C123.886 88.5168 123.858 89.0728 123.796 89.6018C123.737 90.1148 123.694 90.6368 123.657 91.1618C123.535 93.2538 123.42 95.4458 123.727 97.5668C123.773 97.8258 123.83 98.0858 123.919 98.3078C123.964 98.4108 124.017 98.5218 124.068 98.5678C124.093 98.6028 124.11 98.6008 124.118 98.6068L124.122 98.6078L124.123 98.6108C124.106 98.8448 124.121 98.6598 124.116 98.7058C124.113 98.6618 124.103 98.6708 124.075 98.6198C124.126 98.5778 124.287 98.3018 124.364 98.0708C124.452 97.8208 124.531 97.5618 124.599 97.2948C124.871 96.2278 125.055 95.1108 125.226 93.9888C125.558 91.7388 125.812 89.4318 126.023 87.0968V87.1458C126.012 86.3768 125.999 85.5708 126.529 84.7738C126.839 84.3808 127.399 84.1678 127.924 84.3658C128.444 84.6088 128.636 85.0748 128.783 85.4598C129.179 86.7388 129.166 87.9938 129.169 89.2318C129.15 90.4698 129.064 91.6918 128.95 92.8998C128.834 94.1078 128.689 95.3038 128.521 96.4858C128.43 97.0768 128.339 97.6658 128.248 98.2518C128.174 98.6238 128.192 98.6358 128.303 98.7458C128.423 98.8368 128.655 98.8228 128.768 98.7278C128.895 98.6428 128.91 98.4678 128.938 98.1428L129.015 97.2748C129.073 96.6958 129.13 96.1198 129.188 95.5468C129.314 94.4008 129.468 93.2668 129.664 92.1498C129.867 91.0338 130.099 89.9308 130.466 88.8628C130.653 88.3308 130.868 87.8028 131.193 87.3118C131.359 87.0698 131.552 86.8268 131.835 86.6488C132.124 86.4828 132.442 86.3318 132.875 86.4988C133.286 86.7228 133.356 87.1028 133.421 87.3798C133.464 87.6718 133.483 87.9558 133.474 88.2298C133.465 88.7808 133.406 89.3128 133.339 89.8378C133.2 90.8868 133.013 91.9058 132.836 92.9088C132.51 94.9008 132.06 96.8838 132.216 98.7038C132.24 98.9278 132.3 99.1328 132.375 99.3138C132.421 99.4048 132.472 99.4798 132.504 99.5128C132.509 99.5018 132.496 99.4948 132.48 99.5568C132.471 99.6378 132.483 99.5388 132.47 99.5518C132.432 99.4898 132.46 99.5078 132.476 99.4858C132.687 99.2268 132.835 98.7248 132.966 98.3118C133.226 97.4398 133.434 96.5568 133.659 95.6958C133.884 94.8348 134.111 93.9888 134.408 93.1738C134.557 92.7668 134.722 92.3668 134.954 91.9868C135.08 91.8008 135.204 91.6108 135.41 91.4568C135.5 91.3748 135.635 91.3168 135.767 91.2798C135.923 91.2558 136.049 91.2588 136.151 91.2788C136.386 91.2888 136.705 91.4948 136.783 91.7418C136.88 91.9748 136.901 92.1948 136.911 92.4038C136.931 92.8258 136.885 93.2198 136.845 93.6118C136.751 94.3908 136.606 95.1338 136.465 95.8558C136.174 97.2938 135.858 98.6518 135.475 99.8898C134.728 102.371 133.978 104.469 133.358 106.181C132.735 107.892 132.23 109.211 131.879 110.103C131.71 110.522 131.576 110.855 131.471 111.114C131.376 111.345 131.323 111.459 131.313 111.455Z" fill="#EB996E"/>
<path d="M76.7281 139.637C78.6281 146.341 82.3401 156.699 86.3301 167.619C86.9071 169.197 89.1021 169.3 89.8211 167.781L99.6051 147.097C99.6051 147.097 97.2491 130.104 97.4491 130.704C97.6491 131.304 77.2641 132.902 77.2641 132.902L76.7281 139.637Z" fill="#E8505B"/>
<path d="M98.7621 136.303C98.7841 136.386 97.5471 136.745 95.6101 137.483C93.6741 138.219 91.0541 139.389 88.3521 141.023C85.6531 142.665 83.4041 144.447 81.8571 145.824C80.3071 147.2 79.4161 148.131 79.3531 148.073C79.3261 148.049 79.5221 147.792 79.9011 147.347C80.2761 146.898 80.8561 146.282 81.6071 145.554C83.1041 144.095 85.3471 142.241 88.0821 140.578C90.8201 138.922 93.5001 137.79 95.4861 137.137C96.4791 136.808 97.2931 136.578 97.8651 136.453C98.4351 136.324 98.7531 136.268 98.7621 136.303Z" fill="#FAFAFA"/>
<path d="M102.64 141.461C102.589 141.498 101.923 140.713 101.008 139.325C100.093 137.939 98.9601 135.929 97.9861 133.582C97.0151 131.233 96.3931 129.011 96.0591 127.384C95.7231 125.756 95.6381 124.73 95.7011 124.72C95.7801 124.707 95.9931 125.708 96.4171 127.298C96.8401 128.889 97.5081 131.064 98.4671 133.382C99.4301 135.698 100.495 137.708 101.322 139.131C102.148 140.557 102.705 141.415 102.64 141.461Z" fill="#263238"/>
<path d="M109.166 49.8488C105.744 55.3798 105.017 62.5358 107.255 68.6568C108.26 71.4048 109.851 74.1188 109.56 77.0338C109.262 80.0198 106.997 82.8408 107.797 85.7308C108.27 87.4388 109.736 88.7058 110.298 90.3858C110.958 92.3578 110.27 94.4918 109.956 96.5498C109.157 101.787 110.83 107.053 111.245 112.336C111.66 117.619 110.234 123.802 105.523 126.106C104.091 126.807 102.219 127.008 101.028 125.94C99.5161 124.585 99.9371 122.149 100.351 120.147C104.491 100.129 91.7021 80.6278 94.6221 60.3908C95.0901 57.1468 96.9021 51.6438 99.2371 49.3738C101.572 47.1038 108.031 47.3798 110.241 49.7748" fill="#263238"/>
<path d="M89.4681 107.862C89.4271 107.828 90.0691 107.141 90.9691 105.723C91.8651 104.314 92.9931 102.113 93.5811 99.1748C93.8671 97.7068 93.9931 96.0718 93.8891 94.3108C93.8121 92.5498 93.5641 90.6558 93.6831 88.6288C93.7251 87.6148 93.9421 86.5838 94.2571 85.5648C94.6121 84.5598 95.0721 83.5738 95.6301 82.6278C96.7491 80.7358 98.1661 78.9738 99.4631 77.0908C100.76 75.2158 101.836 73.2288 102.184 71.1288C102.534 69.0308 102.156 66.9518 101.835 64.9928C101.489 63.0328 101.25 61.1038 101.394 59.3098C101.508 57.5178 101.867 55.8728 102.353 54.4298C103.335 51.5348 104.787 49.4838 105.888 48.2068C106.442 47.5648 106.911 47.1008 107.249 46.8098C107.583 46.5148 107.764 46.3668 107.776 46.3798C107.814 46.4198 107.102 47.0318 106.045 48.3368C105.003 49.6398 103.623 51.6908 102.704 54.5458C102.249 55.9688 101.919 57.5838 101.826 59.3348C101.705 61.0898 101.95 62.9508 102.309 64.9128C102.64 66.8658 103.048 68.9958 102.688 71.2118C102.327 73.4268 101.205 75.4878 99.8931 77.3858C98.5791 79.2918 97.1681 81.0418 96.0691 82.8878C95.5211 83.8098 95.0741 84.7608 94.7281 85.7238C94.4231 86.6978 94.2081 87.6778 94.1621 88.6608C94.0331 90.6228 94.2611 92.5118 94.3211 94.2928C94.4081 96.0768 94.2571 97.7598 93.9421 99.2488C93.2951 102.237 92.0961 104.445 91.1381 105.835C90.6581 106.535 90.2401 107.044 89.9451 107.378C89.6461 107.707 89.4821 107.874 89.4681 107.862Z" fill="#455A64"/>
<path d="M79.9841 109.359C79.9681 109.35 80.0761 109.12 80.2941 108.688C80.5391 108.214 80.8621 107.59 81.2661 106.811C82.1031 105.18 83.3561 102.834 84.5881 99.8038C85.7961 96.7848 86.9931 93.0028 87.0301 88.6908C87.0371 87.6178 86.9591 86.5188 86.7861 85.4098C86.6141 84.2988 86.3551 83.1648 86.1881 81.9818C86.0281 80.8028 85.9511 79.5458 86.2641 78.3038C86.5741 77.0588 87.3561 75.9508 88.2991 75.0938C90.1841 73.3798 92.4581 72.2638 93.6331 70.2578C94.8361 68.2858 95.1021 65.9728 95.4061 63.8448C95.6661 61.6938 96.0791 59.6228 96.7831 57.8028C97.4631 55.9738 98.3721 54.3848 99.3201 53.0318C101.229 50.3138 103.352 48.6028 104.879 47.5858C105.648 47.0778 106.271 46.7228 106.709 46.5148C107.143 46.2998 107.375 46.1948 107.383 46.2108C107.41 46.2608 106.487 46.6978 104.994 47.7518C103.517 48.8108 101.461 50.5418 99.6231 53.2408C98.7101 54.5848 97.8371 56.1548 97.1881 57.9538C96.5151 59.7478 96.1311 61.7508 95.8821 63.9078C95.5871 66.0368 95.3431 68.4118 94.0691 70.5238C92.7961 72.6838 90.4421 73.8318 88.6541 75.4748C87.7531 76.2988 87.0531 77.2978 86.7661 78.4328C86.4771 79.5688 86.5401 80.7598 86.6941 81.9108C86.8541 83.0668 87.1071 84.1988 87.2781 85.3328C87.4501 86.4698 87.5241 87.5968 87.5101 88.6928C87.4451 93.0978 86.1891 96.9158 84.9291 99.9418C83.6431 102.978 82.3371 105.302 81.4441 106.906C81.0051 107.666 80.6531 108.275 80.3861 108.737C80.1381 109.154 80.0001 109.368 79.9841 109.359Z" fill="#455A64"/>
<path d="M410.847 391.926C410.838 391.921 410.898 391.778 411.022 391.504C411.162 391.205 411.349 390.805 411.589 390.296C412.07 389.229 412.696 387.612 413.254 385.46C414.356 381.16 414.74 374.589 413.112 366.784C412.356 362.876 411.137 358.684 409.648 354.24C408.182 349.788 406.479 345.064 405.088 339.958C403.713 334.864 402.627 329.334 402.836 323.537C403.047 317.729 404.766 311.931 406.658 306.16C408.545 300.38 410.497 294.73 411.082 289.047C411.743 283.374 410.529 277.805 407.945 273.242C405.442 268.63 402.293 264.686 399.936 260.601C397.542 256.529 396.045 252.342 395.122 248.448C393.333 240.596 393.96 233.981 394.817 229.621C395.746 225.238 396.782 222.972 396.782 222.972C396.792 222.976 396.752 223.125 396.666 223.414C396.568 223.729 396.436 224.151 396.268 224.689C395.922 225.809 395.473 227.482 395.047 229.666C394.264 234.017 393.711 240.587 395.535 248.352C396.476 252.203 397.98 256.335 400.365 260.351C402.716 264.388 405.879 268.316 408.432 272.981C411.071 277.594 412.34 283.345 411.668 289.107C411.08 294.886 409.113 300.574 407.23 306.347C405.339 312.113 403.64 317.85 403.425 323.561C403.211 329.269 404.269 334.745 405.623 339.815C406.991 344.896 408.674 349.621 410.122 354.086C411.592 358.544 412.796 362.769 413.529 366.705C415.115 374.568 414.662 381.205 413.481 385.52C412.884 387.68 412.218 389.294 411.699 390.349C411.437 390.849 411.231 391.242 411.077 391.535C410.933 391.797 410.856 391.93 410.847 391.926Z" fill="#263238"/>
<path d="M403.136 264.631C403.136 264.631 398.35 249.327 406.935 240.367C407.237 240.053 407.767 240.201 407.845 240.63C408.303 243.156 408.876 250.854 403.136 264.631Z" fill="#E8505B"/>
<path d="M406.003 245.466C406.084 245.482 405.947 246.559 405.681 248.289C405.366 250.234 404.997 252.517 404.589 255.039C404.188 257.561 403.826 259.844 403.518 261.789C403.256 263.517 403.099 264.589 403.011 264.582C402.933 264.576 402.941 263.487 403.097 261.737C403.255 259.988 403.564 257.583 403.997 254.942C404.429 252.302 404.889 249.924 405.264 248.211C405.638 246.499 405.922 245.45 406.003 245.466Z" fill="#263238"/>
<path d="M408.758 300.725C408.758 300.725 411.685 284.96 423.463 281.054C423.877 280.917 424.276 281.296 424.144 281.712C423.368 284.16 420.274 291.232 408.758 300.725Z" fill="#E8505B"/>
<path d="M420.255 285.126C420.319 285.178 419.695 286.066 418.65 287.471C417.462 289.043 416.068 290.888 414.529 292.927C412.995 294.97 411.607 296.818 410.425 298.392C409.385 299.797 408.745 300.671 408.671 300.624C408.605 300.583 409.121 299.624 410.077 298.15C411.035 296.679 412.432 294.696 414.051 292.565C415.667 290.433 417.187 288.547 418.319 287.208C419.449 285.868 420.191 285.074 420.255 285.126Z" fill="#263238"/>
<path d="M405.575 340.275C405.575 340.275 403.797 324.34 413.934 317.181C414.29 316.93 414.782 317.177 414.777 317.613C414.744 320.181 413.838 327.847 405.575 340.275Z" fill="#E8505B"/>
<path d="M412.046 322.009C412.123 322.04 411.783 323.071 411.191 324.719C410.511 326.568 409.713 328.739 408.831 331.137C407.957 333.537 407.166 335.709 406.492 337.558C405.905 339.205 405.546 340.227 405.462 340.203C405.387 340.183 405.603 339.115 406.089 337.427C406.578 335.741 407.34 333.438 408.269 330.929C409.197 328.419 410.102 326.173 410.797 324.563C411.49 322.953 411.969 321.978 412.046 322.009Z" fill="#263238"/>
<path d="M414.447 380.056C414.447 380.056 413.241 364.067 423.627 357.276C423.992 357.038 424.475 357.302 424.454 357.737C424.33 360.303 423.15 367.932 414.447 380.056Z" fill="#E8505B"/>
<path d="M421.568 362.034C421.644 362.068 421.267 363.086 420.617 364.712C419.871 366.536 418.996 368.676 418.029 371.041C417.069 373.408 416.201 375.55 415.461 377.374C414.815 378.999 414.421 380.007 414.337 379.981C414.263 379.958 414.517 378.899 415.063 377.229C415.612 375.561 416.456 373.288 417.475 370.813C418.492 368.338 419.478 366.126 420.229 364.542C420.979 362.957 421.493 362 421.568 362.034Z" fill="#263238"/>
<path d="M396.258 251.185C396.258 251.185 382.045 243.763 381.766 231.356C381.756 230.92 382.236 230.65 382.595 230.898C384.708 232.359 390.561 237.391 396.258 251.185Z" fill="#E8505B"/>
<path d="M384.718 235.618C384.787 235.572 385.452 236.429 386.489 237.841C387.643 239.437 388.999 241.311 390.496 243.382C391.999 245.447 393.359 247.316 394.517 248.908C395.555 250.314 396.203 251.183 396.136 251.24C396.077 251.291 395.312 250.516 394.183 249.17C393.057 247.823 391.572 245.905 390.009 243.733C388.445 241.562 387.087 239.557 386.139 238.082C385.191 236.606 384.649 235.664 384.718 235.618Z" fill="#263238"/>
<path d="M411.52 284.051C411.52 284.051 396.882 277.505 395.851 265.139C395.815 264.705 396.277 264.406 396.65 264.631C398.848 265.961 404.996 270.628 411.52 284.051Z" fill="#E8505B"/>
<path d="M399.056 269.214C399.122 269.164 399.838 269.979 400.959 271.325C402.208 272.848 403.675 274.636 405.295 276.612C406.92 278.582 408.391 280.365 409.644 281.884C410.766 283.225 411.465 284.052 411.402 284.113C411.346 284.167 410.536 283.44 409.327 282.165C408.121 280.889 406.523 279.065 404.831 276.991C403.138 274.919 401.661 273 400.625 271.585C399.588 270.171 398.99 269.264 399.056 269.214Z" fill="#263238"/>
<path d="M403.098 320.711C403.098 320.711 393.048 308.217 397.762 296.738C397.927 296.335 398.476 296.28 398.705 296.65C400.055 298.835 403.403 305.79 403.098 320.711Z" fill="#E8505B"/>
<path d="M398.759 301.825C398.841 301.811 399.107 302.863 399.492 304.571C399.91 306.496 400.401 308.756 400.944 311.253C401.494 313.747 401.991 316.004 402.415 317.927C402.803 319.632 403.049 320.687 402.964 320.712C402.89 320.735 402.499 319.718 402.004 318.033C401.512 316.348 400.919 313.996 400.357 311.38C399.793 308.765 399.353 306.383 399.075 304.652C398.796 302.92 398.677 301.84 398.759 301.825Z" fill="#263238"/>
<path d="M413.053 363.853C413.053 363.853 398.527 357.062 397.704 344.681C397.675 344.246 398.143 343.955 398.512 344.187C400.686 345.552 406.755 350.322 413.053 363.853Z" fill="#E8505B"/>
<path d="M400.84 348.808C400.907 348.759 401.609 349.586 402.707 350.95C403.93 352.494 405.367 354.307 406.953 356.309C408.545 358.306 409.986 360.113 411.213 361.653C412.312 363.012 412.997 363.851 412.933 363.911C412.876 363.964 412.078 363.224 410.891 361.929C409.707 360.633 408.139 358.782 406.482 356.681C404.824 354.581 403.38 352.637 402.368 351.206C401.356 349.775 400.773 348.857 400.84 348.808Z" fill="#263238"/>
<path d="M441.986 300.811C442 300.812 442.006 300.932 442.004 301.164C441.997 301.443 441.989 301.78 441.979 302.189C441.936 303.152 441.879 304.453 441.807 306.077C441.62 309.495 441.359 314.261 441.046 319.961L441.045 319.975L441.041 319.995C440.004 325.797 437.049 332.228 433.08 338.472C430.168 343.071 427.116 347.253 424.484 351.142C421.834 355.02 419.598 358.612 418.039 361.795C416.47 364.973 415.558 367.704 415.024 369.613C414.769 370.571 414.577 371.318 414.466 371.829C414.347 372.338 414.274 372.604 414.253 372.601C414.233 372.597 414.266 372.324 414.347 371.806C414.419 371.286 414.575 370.528 414.797 369.555C415.264 367.618 416.123 364.84 417.656 361.611C419.179 358.377 421.394 354.737 424.024 350.834C426.638 346.917 429.674 342.729 432.57 338.153C436.518 331.94 439.458 325.607 440.534 319.898L440.53 319.931C440.93 314.236 441.265 309.475 441.505 306.06C441.636 304.44 441.741 303.142 441.819 302.181C441.86 301.774 441.894 301.439 441.922 301.161C441.951 300.929 441.972 300.81 441.986 300.811Z" fill="#263238"/>
<path d="M433.337 337.278C433.337 337.278 439.489 322.471 431.75 312.77C431.478 312.43 430.936 312.53 430.82 312.949C430.135 315.424 428.868 323.038 433.337 337.278Z" fill="#E8505B"/>
<path d="M432.217 317.932C432.299 317.923 432.488 318.994 432.705 320.734C432.923 322.474 433.166 324.884 433.357 327.552C433.55 330.221 433.639 332.645 433.638 334.4C433.635 336.157 433.544 337.242 433.466 337.241C433.378 337.24 433.319 336.158 433.214 334.413C433.083 332.449 432.929 330.143 432.758 327.594C432.58 325.045 432.419 322.738 432.282 320.773C432.173 319.025 432.134 317.941 432.217 317.932Z" fill="#263238"/>
<g opacity="0.3">
<path d="M433.337 337.278C433.337 337.278 439.489 322.471 431.75 312.77C431.478 312.43 430.936 312.53 430.82 312.949C430.135 315.424 428.868 323.038 433.337 337.278Z" fill="black"/>
</g>
<path d="M414.283 372.961C414.283 372.961 419.214 357.703 410.714 348.662C410.416 348.344 409.884 348.488 409.802 348.916C409.32 351.439 408.674 359.131 414.283 372.961Z" fill="#E8505B"/>
<path d="M411.598 353.77C411.679 353.755 411.954 354.806 412.311 356.523C412.669 358.239 413.107 360.621 413.514 363.265C413.923 365.91 414.208 368.318 414.35 370.068C414.489 371.819 414.486 372.908 414.409 372.913C414.321 372.919 414.175 371.846 413.929 370.115C413.639 368.168 413.298 365.881 412.922 363.355C412.538 360.829 412.19 358.543 411.894 356.595C411.643 354.863 411.516 353.785 411.598 353.77Z" fill="#263238"/>
<g opacity="0.3">
<path d="M414.283 372.961C414.283 372.961 419.214 357.703 410.714 348.662C410.416 348.344 409.884 348.488 409.802 348.916C409.32 351.439 408.674 359.131 414.283 372.961Z" fill="black"/>
</g>
<path d="M441.171 319.181C441.171 319.181 454.307 309.985 452.981 297.647C452.934 297.214 452.424 297.008 452.1 297.299C450.194 299.021 445.039 304.767 441.171 319.181Z" fill="#E8505B"/>
<g opacity="0.3">
<path d="M441.171 319.181C441.171 319.181 454.307 309.985 452.981 297.647C452.934 297.214 452.424 297.008 452.1 297.299C450.194 299.021 445.039 304.767 441.171 319.181Z" fill="black"/>
</g>
<path d="M450.605 302.255C450.679 302.292 450.264 303.296 449.514 304.881C448.764 306.466 447.677 308.63 446.406 310.985C445.137 313.341 443.912 315.434 442.969 316.915C442.024 318.395 441.365 319.262 441.3 319.22C441.226 319.172 441.757 318.227 442.605 316.699C443.548 314.971 444.655 312.942 445.879 310.7C447.096 308.454 448.198 306.421 449.137 304.688C449.982 303.154 450.531 302.218 450.605 302.255Z" fill="#263238"/>
<path d="M419.58 357.835C419.58 357.835 435.423 355.365 439.667 343.704C439.816 343.295 439.448 342.884 439.029 343.004C436.56 343.709 429.401 346.598 419.58 357.835Z" fill="#E8505B"/>
<g opacity="0.3">
<path d="M419.58 357.835C419.58 357.835 435.423 355.365 439.667 343.704C439.816 343.295 439.448 342.884 439.029 343.004C436.56 343.709 429.401 346.598 419.58 357.835Z" fill="black"/>
</g>
<path d="M435.504 346.793C435.554 346.859 434.739 347.577 433.368 348.67C431.997 349.763 430.067 351.227 427.89 352.781C425.713 354.337 423.691 355.677 422.192 356.592C420.691 357.505 419.718 357.993 419.678 357.926C419.633 357.85 420.525 357.236 421.96 356.237C423.568 355.101 425.455 353.767 427.541 352.293C429.623 350.812 431.508 349.472 433.113 348.331C434.549 347.326 435.454 346.727 435.504 346.793Z" fill="#263238"/>
<path d="M404.466 386.991L399.844 418.096H428.645L424.911 386.991H404.466Z" fill="#455A64"/>
<path d="M426.063 396.63C426.063 396.796 420.863 396.93 414.45 396.93C408.035 396.93 402.836 396.796 402.836 396.63C402.836 396.464 408.035 396.33 414.45 396.33C420.862 396.33 426.063 396.464 426.063 396.63Z" fill="#263238"/>
<path d="M426.634 399.105C426.634 399.271 421.263 399.405 414.64 399.405C408.014 399.405 402.645 399.271 402.645 399.105C402.645 398.939 408.014 398.805 414.64 398.805C421.263 398.805 426.634 398.939 426.634 399.105Z" fill="#263238"/>
<path d="M314.639 85.2867C314.639 85.2867 314.373 85.2917 313.857 85.2767C313.341 85.2547 312.574 85.2187 311.569 85.2887C309.573 85.3997 306.576 85.7767 303.047 87.2537C299.557 88.7287 295.473 91.3337 292.224 95.6877C290.613 97.8557 289.266 100.463 288.446 103.418C287.656 106.377 287.388 109.658 287.764 113.038C288.192 116.405 289.221 119.89 291.109 123.089C292.045 124.685 293.155 126.235 294.512 127.602C295.823 129.009 297.37 130.254 299.113 131.202C300.853 132.144 302.846 132.737 304.885 132.656C306.907 132.59 308.995 131.877 310.475 130.401C311.965 128.936 312.702 126.784 312.703 124.637C312.714 122.474 311.964 120.322 310.675 118.51C308.079 114.861 303.881 112.406 299.414 111.084C294.904 109.77 289.952 109.735 285.21 110.887C282.847 111.502 280.54 112.404 278.37 113.606C276.201 114.815 274.227 116.392 272.497 118.213C272.087 118.689 271.62 119.12 271.255 119.636L270.126 121.16C269.467 122.242 268.792 123.322 268.285 124.497C267.224 126.816 266.481 129.303 266.111 131.866C265.44 136.989 266.06 142.264 268.13 146.868C270.129 151.479 273.538 155.437 277.785 157.822C279.904 159.007 282.247 159.771 284.623 159.9C286.994 160.047 289.359 159.436 291.371 158.28C293.38 157.127 295.057 155.395 295.937 153.307C296.812 151.221 296.796 148.84 296.041 146.768C295.297 144.674 293.905 142.886 292.281 141.451C290.646 140.017 288.74 138.943 286.751 138.237C282.717 136.92 278.419 136.99 274.577 138.026C270.723 139.075 267.289 141.06 264.591 143.594C261.897 146.144 260.008 149.273 258.866 152.467C256.559 158.905 257.146 165.44 259.128 170.434C261.169 175.47 264.408 179.055 267.367 181.425C270.353 183.812 273.071 185.1 274.936 185.834C275.877 186.192 276.601 186.446 277.098 186.586C277.591 186.74 277.84 186.832 277.84 186.832C277.84 186.832 277.582 186.774 277.083 186.637C276.58 186.514 275.848 186.276 274.898 185.932C273.014 185.227 270.266 183.962 267.24 181.583C264.241 179.22 260.948 175.626 258.857 170.542C256.825 165.497 256.201 158.884 258.518 152.343C259.666 149.098 261.576 145.909 264.313 143.303C267.052 140.715 270.54 138.688 274.463 137.61C278.376 136.547 282.752 136.46 286.898 137.805C288.947 138.528 290.904 139.626 292.589 141.099C294.263 142.573 295.709 144.417 296.492 146.607C297.286 148.775 297.31 151.291 296.387 153.496C295.461 155.701 293.706 157.51 291.618 158.712C289.529 159.917 287.063 160.556 284.595 160.405C282.13 160.273 279.712 159.484 277.536 158.269C273.177 155.825 269.697 151.782 267.654 147.077C265.542 142.381 264.909 137.012 265.594 131.793C265.971 129.182 266.729 126.647 267.812 124.279C268.33 123.08 269.019 121.976 269.694 120.871L270.848 119.313C271.222 118.786 271.699 118.345 272.118 117.859C273.886 115.998 275.904 114.389 278.116 113.158C280.33 111.933 282.68 111.016 285.086 110.392C289.914 109.222 294.954 109.261 299.552 110.606C304.109 111.965 308.379 114.454 311.068 118.236C312.4 120.111 313.189 122.375 313.172 124.638C313.168 126.884 312.392 129.162 310.797 130.727C309.211 132.299 307.011 133.036 304.901 133.101C302.767 133.182 300.694 132.556 298.908 131.582C297.115 130.602 295.542 129.326 294.211 127.891C292.833 126.495 291.708 124.915 290.762 123.29C288.853 120.033 287.82 116.494 287.398 113.079C287.028 109.651 287.312 106.325 288.126 103.329C288.969 100.336 290.348 97.6977 291.99 95.5127C295.301 91.1237 299.44 88.5227 302.968 87.0657C306.536 85.6067 309.557 85.2617 311.563 85.1837C312.573 85.1307 313.342 85.1837 313.859 85.2227C314.377 85.2557 314.639 85.2867 314.639 85.2867Z" fill="#263238"/>
<path d="M348.037 185.347H207.827V293.49H348.037V185.347Z" fill="#E8505B"/>
<path d="M207.827 185.347L233.724 209.502H371.557L348.037 185.347H207.827Z" fill="#E8505B"/>
<path d="M207.827 185.347C210.356 185.342 268.267 185.237 348.037 185.092H348.145L348.22 185.169C355.732 192.881 363.527 200.884 371.501 209.072C371.583 209.156 371.665 209.24 371.743 209.321L372.174 209.764L371.557 209.763C315.039 209.721 264.876 209.683 233.724 209.659H233.662L233.617 209.617C217.412 194.367 208.677 186.147 207.827 185.347C208.684 186.139 217.492 194.282 233.831 209.387L233.724 209.345C264.876 209.322 315.039 209.284 371.557 209.241L371.37 209.683C371.292 209.603 371.21 209.519 371.128 209.434C363.156 201.244 355.363 193.239 347.854 185.524L348.037 185.601C268.267 185.457 210.354 185.352 207.827 185.347Z" fill="#263238"/>
<path d="M249.94 235.213C248.456 235.215 247.102 236.548 247.077 238.032C247.051 239.516 248.358 240.894 249.841 240.948C251.324 241.002 252.727 239.721 252.809 238.239C252.891 236.757 251.636 235.33 250.157 235.221" fill="#263238"/>
<path d="M283.046 235.213C281.562 235.215 280.208 236.548 280.183 238.032C280.157 239.516 281.464 240.894 282.947 240.948C284.43 241.002 285.833 239.721 285.915 238.239C285.997 236.757 284.742 235.33 283.263 235.221" fill="#263238"/>
<path d="M283.259 261.1C283.109 261.162 282.888 258.394 280.484 254.884C279.303 253.143 277.534 251.298 275.187 249.802C272.854 248.305 269.891 247.229 266.69 247.112C263.486 247.053 260.469 247.965 258.056 249.332C255.63 250.697 253.763 252.443 252.488 254.116C249.895 257.489 249.523 260.241 249.377 260.17C249.359 260.166 249.388 260.004 249.458 259.697C249.543 259.395 249.608 258.928 249.825 258.369C250.187 257.228 250.922 255.628 252.195 253.893C253.459 252.156 255.342 250.338 257.82 248.914C260.282 247.488 263.389 246.529 266.705 246.591C270.018 246.711 273.066 247.84 275.446 249.398C277.841 250.956 279.622 252.874 280.789 254.678C281.965 256.481 282.611 258.119 282.91 259.278C283.096 259.848 283.135 260.318 283.204 260.624C283.257 260.933 283.277 261.097 283.259 261.1Z" fill="#263238"/>
<path opacity="0.5" d="M208.145 186.537L232.941 217.976H348.037V209.502H233.724L208.145 186.537Z" fill="black"/>
<path d="M320.389 293.242C320.245 293.242 320.129 274.432 320.129 251.234C320.129 228.028 320.245 209.222 320.389 209.222C320.533 209.222 320.649 228.028 320.649 251.234C320.649 274.432 320.533 293.242 320.389 293.242Z" fill="#263238"/>
<path d="M342.404 268.727H330.045V282.698H342.404V268.727Z" fill="#F5F5F5"/>
<path d="M207.827 185.347L179.041 209.502H207.827V185.347Z" fill="#E8505B"/>
<g opacity="0.4">
<path d="M207.827 185.347L179.041 209.502H207.827V185.347Z" fill="black"/>
</g>
<path d="M352.175 293.49H190.966V417.828H352.175V293.49Z" fill="#E8505B"/>
<path opacity="0.3" d="M352.175 293.49H190.966V417.828H352.175V293.49Z" fill="black"/>
<path d="M311.785 416.95C311.641 416.95 311.525 389.235 311.525 355.055C311.525 320.863 311.642 293.154 311.785 293.154C311.928 293.154 312.045 320.863 312.045 355.055C312.045 389.235 311.929 416.95 311.785 416.95Z" fill="#263238"/>
<path d="M338.506 389.526H326.147V403.497H338.506V389.526Z" fill="#F5F5F5"/>
<path d="M258.457 293.81H240.146V320.341H258.457V293.81Z" fill="#263238"/>
<path d="M258.457 390.927H240.146V417.458H258.457V390.927Z" fill="#263238"/>
<path d="M350.769 293.49C350.769 293.499 350.629 293.508 350.356 293.517C350.059 293.523 349.657 293.532 349.145 293.543C348.053 293.554 346.489 293.571 344.489 293.592C340.418 293.612 334.575 293.64 327.365 293.674C312.883 293.693 292.92 293.72 270.87 293.749C248.813 293.72 228.848 293.693 214.366 293.674C207.157 293.639 201.314 293.611 197.243 293.592C195.243 293.571 193.68 293.555 192.588 293.543C192.076 293.532 191.675 293.523 191.377 293.517C191.104 293.508 190.965 293.499 190.965 293.49C190.965 293.481 191.105 293.472 191.377 293.463C191.674 293.457 192.075 293.448 192.588 293.437C193.68 293.425 195.243 293.409 197.243 293.388C201.313 293.368 207.156 293.34 214.366 293.305C228.848 293.285 248.813 293.258 270.87 293.228C292.919 293.258 312.882 293.286 327.365 293.305C334.574 293.34 340.418 293.369 344.489 293.388C346.489 293.409 348.053 293.425 349.145 293.437C349.657 293.448 350.059 293.457 350.356 293.463C350.63 293.472 350.769 293.481 350.769 293.49Z" fill="#263238"/>
<path d="M74.4911 78.2128C73.3311 77.9278 67.7451 76.5548 56.9371 73.8998L57.0661 73.8798C53.2061 76.3418 47.9761 78.3288 41.9131 78.4228C38.8971 78.4118 35.7071 78.0488 32.5231 77.0518C29.3421 76.0608 26.2151 74.4168 23.3731 72.2008C17.6861 67.8018 13.2581 60.7518 12.3021 52.6368C11.8141 48.6058 12.1411 44.3678 13.3951 40.3108C14.6721 36.2638 16.8761 32.4298 19.8441 29.2018C21.3491 27.4958 23.1201 26.0808 24.9281 24.7718C25.8771 24.1858 26.8131 23.5768 27.7911 23.0618L29.2841 22.3428L30.0281 21.9848L30.8011 21.7018C34.8911 20.1158 39.2441 19.5018 43.4221 19.7798C47.6051 20.0488 51.6111 21.2188 55.1151 23.0628C58.6251 24.9028 61.6341 27.4008 63.9961 30.2368C66.3641 33.0738 68.0861 36.2458 69.1811 39.4478C70.2751 42.6538 70.7741 45.8788 70.8031 48.9258C70.8391 55.0468 68.9261 60.2978 66.5981 64.1318L66.6001 63.9738C71.4811 72.7808 73.9471 77.2308 74.4911 78.2128C73.9281 77.2418 71.3761 72.8398 66.3261 64.1288L66.2801 64.0498L66.3281 63.9698C68.5971 60.1558 70.4471 54.9618 70.3781 48.9288C70.3331 45.9258 69.8261 42.7528 68.7371 39.6038C67.6471 36.4578 65.9431 33.3468 63.6061 30.5658C61.2761 27.7858 58.3141 25.3408 54.8641 23.5428C51.4201 21.7418 47.4891 20.6018 43.3861 20.3438C39.2871 20.0778 35.0201 20.6838 31.0121 22.2418L30.2541 22.5198L29.5251 22.8708L28.0621 23.5758C27.1031 24.0808 26.1871 24.6788 25.2561 25.2528C23.4851 26.5368 21.7481 27.9238 20.2731 29.5958C17.3631 32.7608 15.2021 36.5178 13.9471 40.4828C12.7151 44.4578 12.3901 48.6148 12.8631 52.5688C13.7891 60.5268 18.1151 67.4548 23.6901 71.7958C26.4761 73.9818 29.5441 75.6088 32.6691 76.5958C35.7971 77.5888 38.9351 77.9598 41.9071 77.9868C47.8811 77.9248 53.0521 76.0008 56.8901 73.5978L56.9511 73.5598L57.0191 73.5778C67.7771 76.4318 73.3381 77.9068 74.4911 78.2128Z" fill="#263238"/>
<path d="M39.0351 36.0448L39.9631 50.7078C40.0391 51.9068 40.9971 52.8608 42.1961 52.9328C43.4611 53.0078 44.5631 52.0788 44.7021 50.8188L46.3301 36.0818C46.4531 34.9658 45.5711 33.9948 44.4481 34.0098L40.8711 34.0598C39.8051 34.0748 38.9671 34.9798 39.0351 36.0448Z" fill="#E8505B"/>
<path d="M46.0831 61.1808C45.4601 63.0568 43.4351 64.0728 41.5591 63.4498C39.6831 62.8268 38.6671 60.8018 39.2901 58.9258C39.9131 57.0498 41.9381 56.0338 43.8141 56.6568C45.6901 57.2788 46.7061 59.3048 46.0831 61.1808Z" fill="#E8505B"/>
</svg>
